<svg xmlns="http://www.w3.org/2000/svg" viewBox="0 0 120 120" enable-background="new 0 0 120 120"><g fill="#fff"><path d="M86.4 30.4v59.3c0 6.8-5.5 12.3-12.3 12.3h-28.3c-6.8 0-12.3-5.5-12.3-12.3v-59.3c0-6.8 5.5-12.3 12.3-12.3h28.4c6.7 0 12.2 5.5 12.2 12.3zm-46.7 59.2c0 3.4 2.8 6.1 6.1 6.1h28.4c3.4 0 6.1-2.8 6.1-6.1v-59.2c0-3.4-2.8-6.1-6.1-6.1h-28.4c-3.4 0-6.1 2.8-6.1 6.1v59.2zM10.3 50.3l-9-13.9h6.3c0-10.1 8.2-18.3 18.3-18.3v5.4c-7.1 0-12.9 5.8-12.9 12.9h6.3l-9 13.9zM109.7 69.7l9 13.9h-6.3c0 10.1-8.2 18.3-18.3 18.3v-5.4c7.1 0 12.9-5.8 12.9-12.9h-6.3l9-13.9z"></path></g></svg>